<svg id="bell" xmlns="http://www.w3.org/2000/svg" width="13.494" height="16.193" viewBox="0 0 13.494 16.193">
  <path id="パス_8092" data-name="パス 8092" d="M13.075,11.411A4.519,4.519,0,0,1,11.47,7.953V6.072A4.727,4.727,0,0,0,7.422,1.4V.675a.675.675,0,0,0-1.349,0V1.4A4.726,4.726,0,0,0,2.024,6.072V7.953A4.524,4.524,0,0,1,.413,11.417a1.181,1.181,0,0,0,.768,2.077H12.313a1.181,1.181,0,0,0,.762-2.083Zm0,0" transform="translate(0)" fill="#fff"/>
  <path id="パス_8093" data-name="パス 8093" d="M137.432,450.024A2.534,2.534,0,0,0,139.911,448h-4.958A2.534,2.534,0,0,0,137.432,450.024Zm0,0" transform="translate(-130.685 -433.831)" fill="#fff"/>
</svg>
