<svg xmlns="http://www.w3.org/2000/svg" width="43.074" height="43.074" viewBox="0 0 43.074 43.074">
  <g id="user" transform="translate(0 0)">
    <path id="パス_1013" data-name="パス 1013" d="M16.781,35.184l-6.328,3.494a5.688,5.688,0,0,0-1.016.732,21,21,0,0,0,27.233.071,5.61,5.61,0,0,0-1.116-.757l-6.777-3.43a2.62,2.62,0,0,1-1.429-2.34V30.264a10.348,10.348,0,0,0,.641-.835,15.863,15.863,0,0,0,2.107-4.3,2.151,2.151,0,0,0,1.509-2.05V20.209a2.156,2.156,0,0,0-.709-1.592V14.464S31.74,8,23.094,8s-7.8,6.463-7.8,6.463v4.153a2.153,2.153,0,0,0-.709,1.592v2.873a2.16,2.16,0,0,0,.981,1.808,14.32,14.32,0,0,0,2.566,5.374v2.625A2.624,2.624,0,0,1,16.781,35.184Z" transform="translate(-1.557 -1.385)" fill="#e7eced"/>
    <g id="グループ_1093" data-name="グループ 1093" transform="translate(0 0)">
      <path id="パス_1014" data-name="パス 1014" d="M21.906,0A21.432,21.432,0,0,0,7.679,37.866,5.723,5.723,0,0,1,8.7,37.142l6.426-3.493a2.614,2.614,0,0,0,1.368-2.3V28.73a14.218,14.218,0,0,1-2.606-5.371,2.152,2.152,0,0,1-1-1.807V18.68a2.14,2.14,0,0,1,.72-1.591V12.938s-.856-6.46,7.924-6.46,7.924,6.46,7.924,6.46v4.151a2.137,2.137,0,0,1,.72,1.591v2.872A2.155,2.155,0,0,1,28.649,23.6a15.754,15.754,0,0,1-2.139,4.3,10.361,10.361,0,0,1-.651.834v2.69a2.613,2.613,0,0,0,1.451,2.339l6.882,3.428a5.732,5.732,0,0,1,1.13.755A21.438,21.438,0,0,0,21.906,0Z" transform="translate(0 0)" fill="#556080"/>
    </g>
  </g>
</svg>
